<svg xmlns="http://www.w3.org/2000/svg" width="298" height="174" fill="none" viewBox="0 0 298 174"><path fill="#FEC4A8" d="M198 0h1v174h-1z"/><path fill="#2B95F9" d="M297 0h1v174h-1z"/><path fill="#FEC4A8" d="M0 102h1v72H0z"/><path fill="#FEC4A8" d="M3 142h1v32H3zm3 0h1v32H6zm3 0h1v32H9zm3 0h1v32h-1zm3 0h1v32h-1zm3 0h1v32h-1zm3 0h1v32h-1zm3 0h1v32h-1z" opacity="0.2"/><path fill="#FEC4A8" d="M27 102h1v72h-1z"/><path fill="#FEC4A8" d="M30 142h1v32h-1zm3 0h1v32h-1zm3 0h1v32h-1zm3 0h1v32h-1zm3 0h1v32h-1zm3 0h1v32h-1zm3 0h1v32h-1zm3 0h1v32h-1zm3 0h1v32h-1z" opacity="0.2"/><path fill="#FEC4A8" d="M57 102h1v72h-1z"/><path fill="#FEC4A8" d="M60 142h1v32h-1zm3 0h1v32h-1zm3 0h1v32h-1zm3 0h1v32h-1zm3 0h1v32h-1zm3 0h1v32h-1zm3 0h1v32h-1zm3 0h1v32h-1zm3 0h1v32h-1z" opacity="0.2"/><path fill="#FEC4A8" d="M87 102h1v72h-1z"/><path fill="#FEC4A8" d="M90 142h1v32h-1zm3 0h1v32h-1zm3 0h1v32h-1zm3 0h1v32h-1zm3 0h1v32h-1zm3 0h1v32h-1zm3 0h1v32h-1zm3 0h1v32h-1zm3 0h1v32h-1z" opacity="0.2"/><path fill="#FEC4A8" d="M117 102h1v72h-1z"/><path fill="#FEC4A8" d="M120 142h1v32h-1zm3 0h1v32h-1zm3 0h1v32h-1zm3 0h1v32h-1zm3 0h1v32h-1zm3 0h1v32h-1zm3 0h1v32h-1zm3 0h1v32h-1zm3 0h1v32h-1z" opacity="0.2"/><path fill="#FEC4A8" d="M147 102h1v72h-1z"/><path fill="#FEC4A8" d="M150 142h1v32h-1zm3 0h1v32h-1zm3 0h1v32h-1zm3 0h1v32h-1zm3 0h1v32h-1zm3 0h1v32h-1zm3 0h1v32h-1zm3 0h1v32h-1zm3 0h1v32h-1z" opacity="0.2"/><path fill="#FEC4A8" d="M177 102h1v72h-1z"/><path fill="#FEC4A8" d="M180 142h1v32h-1zm3 0h1v32h-1zm3 0h1v32h-1zm3 0h1v32h-1zm3 0h1v32h-1zm3 0h1v32h-1z" opacity="0.2"/><path fill="#FEC4A8" d="M198 142h1v32h-1z"/><path fill="#2B95F9" d="M201 142h1v32h-1zm3 0h1v32h-1z" opacity="0.2"/><path fill="#2B95F9" d="M207 102h1v72h-1z"/><path fill="#2B95F9" d="M210 142h1v32h-1zm3 0h1v32h-1zm3 0h1v32h-1zm3 0h1v32h-1zm3 0h1v32h-1zm3 0h1v32h-1zm3 0h1v32h-1zm3 0h1v32h-1zm3 0h1v32h-1z" opacity="0.2"/><path fill="#2B95F9" d="M237 102h1v72h-1z"/><path fill="#2B95F9" d="M240 142h1v32h-1zm3 0h1v32h-1zm3 0h1v32h-1zm3 0h1v32h-1zm3 0h1v32h-1zm3 0h1v32h-1zm3 0h1v32h-1zm3 0h1v32h-1zm3 0h1v32h-1z" opacity="0.2"/><path fill="#2B95F9" d="M267 102h1v72h-1z"/><path fill="#2B95F9" d="M270 142h1v32h-1zm3 0h1v32h-1zm3 0h1v32h-1zm3 0h1v32h-1zm3 0h1v32h-1zm3 0h1v32h-1zm3 0h1v32h-1zm3 0h1v32h-1zm3 0h1v32h-1z" opacity="0.2"/><path fill="#2B95F9" d="M297 102h1v72h-1z"/><path fill="#FEC4A8" d="M150.107 30.32c-1.728 0-3.05-.49-3.968-1.472-.917-.981-1.376-2.368-1.376-4.16V13.104c0-3.883 1.792-5.824 5.376-5.824 1.707 0 3.008.49 3.904 1.472.896.96 1.344 2.347 1.344 4.16v.416h-3.328v-.64c0-1.472-.608-2.208-1.824-2.208-.661 0-1.152.203-1.472.608-.32.405-.48 1.12-.48 2.144v4.288h.064c.619-1.301 1.686-1.952 3.2-1.952 1.28 0 2.251.437 2.912 1.312.662.875.992 2.144.992 3.808v4c0 1.792-.458 3.179-1.376 4.16-.917.981-2.24 1.472-3.968 1.472Zm0-3.2c1.216 0 1.824-.725 1.824-2.176v-3.968c0-1.472-.608-2.208-1.824-2.208-1.216 0-1.824.736-1.824 2.208v3.968c0 1.45.608 2.176 1.824 2.176Zm15.469-16.32h-7.104V7.6h10.56v3.072L163.528 30h-3.584l5.632-19.2Zm10.092 9.248c-1.109 0-1.952-.31-2.528-.928-.576-.619-.864-1.504-.864-2.656v-5.6c0-1.152.288-2.037.864-2.656.576-.619 1.419-.928 2.528-.928 1.11 0 1.952.31 2.528.928.576.619.864 1.504.864 2.656v5.6c0 1.152-.288 2.037-.864 2.656-.576.619-1.418.928-2.528.928ZM183.796 7.6h2.24L177.364 30h-2.24l8.672-22.4Zm-8.128 10.432c.768 0 1.152-.47 1.152-1.408v-5.92c0-.939-.384-1.408-1.152-1.408-.768 0-1.152.47-1.152 1.408v5.92c0 .939.384 1.408 1.152 1.408Zm9.824 12.288c-1.109 0-1.952-.31-2.528-.928-.576-.619-.864-1.504-.864-2.656v-5.6c0-1.152.288-2.037.864-2.656.576-.619 1.419-.928 2.528-.928 1.11 0 1.952.31 2.528.928.576.619.864 1.504.864 2.656v5.6c0 1.152-.288 2.037-.864 2.656-.576.619-1.418.928-2.528.928Zm0-2.016c.768 0 1.152-.47 1.152-1.408v-5.92c0-.939-.384-1.408-1.152-1.408-.768 0-1.152.47-1.152 1.408v5.92c0 .939.384 1.408 1.152 1.408ZM145.667 45.8h2.592c.874 0 1.53.235 1.968.704.437.47.656 1.157.656 2.064v1.104c0 .907-.219 1.595-.656 2.064-.438.47-1.094.704-1.968.704h-.832V57h-1.76V45.8Zm2.592 5.04c.288 0 .501-.08.64-.24.149-.16.224-.432.224-.816v-1.328c0-.384-.075-.656-.224-.816-.139-.16-.352-.24-.64-.24h-.832v3.44h.832Zm4.059-5.04h2.608c.907 0 1.568.213 1.984.64.416.416.624 1.061.624 1.936v.688c0 1.163-.384 1.899-1.152 2.208v.032c.427.128.726.39.896.784.182.395.272.923.272 1.584v1.968c0 .32.011.581.032.784.022.192.075.384.16.576h-1.792a2.611 2.611 0 0 1-.128-.512 7.786 7.786 0 0 1-.032-.864v-2.048c0-.512-.085-.87-.256-1.072-.16-.203-.442-.304-.848-.304h-.608V57h-1.76V45.8Zm2.4 4.8c.352 0 .614-.09.784-.272.182-.181.272-.485.272-.912v-.864c0-.405-.074-.699-.224-.88-.138-.181-.362-.272-.672-.272h-.8v3.2h.64Zm4.534-4.8h4.8v1.6h-3.04v2.96h2.416v1.6h-2.416v3.44h3.04V57h-4.8V45.8Zm8.611 11.36c-.853 0-1.498-.24-1.936-.72-.437-.49-.656-1.19-.656-2.096v-.64h1.664v.768c0 .725.304 1.088.912 1.088.299 0 .523-.085.672-.256.16-.181.24-.47.24-.864 0-.47-.106-.88-.32-1.232-.213-.363-.608-.795-1.184-1.296-.725-.64-1.232-1.216-1.52-1.728a3.585 3.585 0 0 1-.432-1.76c0-.885.224-1.568.672-2.048.448-.49 1.099-.736 1.952-.736.843 0 1.478.245 1.904.736.438.48.656 1.173.656 2.08v.464h-1.664v-.576c0-.384-.074-.661-.224-.832-.149-.181-.368-.272-.656-.272-.586 0-.88.357-.88 1.072 0 .405.107.784.32 1.136.224.352.624.779 1.2 1.28.736.64 1.243 1.221 1.52 1.744.278.523.416 1.136.416 1.84 0 .917-.229 1.621-.688 2.112-.448.49-1.104.736-1.968.736Zm5.459-11.36h2.384L177.53 57h-1.76l-.32-2.224v.032h-2L173.13 57h-1.632l1.824-11.2Zm1.92 7.488-.784-5.536h-.032l-.768 5.536h1.584Zm3.622-7.488h1.76v9.6h2.896V57h-4.656V45.8Zm5.98 0h4.8v1.6h-3.04v2.96h2.416v1.6h-2.416v3.44h3.04V57h-4.8V45.8Z"/><path fill="#2B95F9" d="M248.915 30.32c-1.728 0-3.04-.48-3.936-1.44-.874-.96-1.312-2.336-1.312-4.128v-1.824h3.328v1.984c0 1.472.608 2.208 1.824 2.208.598 0 1.046-.181 1.344-.544.32-.384.48-1.045.48-1.984v-1.824c0-1.024-.181-1.75-.544-2.176-.362-.448-.949-.672-1.76-.672h-1.184v-3.2h1.28c.704 0 1.227-.181 1.568-.544.363-.363.544-.97.544-1.824V12.72c0-.768-.16-1.333-.48-1.696-.32-.363-.746-.544-1.28-.544-1.13 0-1.696.693-1.696 2.08v1.472h-3.328v-1.184c0-1.792.438-3.168 1.312-4.128.896-.96 2.176-1.44 3.84-1.44 1.686 0 2.966.48 3.84 1.44.875.939 1.312 2.304 1.312 4.096v.8c0 1.216-.202 2.197-.608 2.944-.405.725-1.034 1.248-1.888 1.568v.064c.918.341 1.579.896 1.984 1.664.406.768.608 1.75.608 2.944v1.984c0 1.792-.448 3.168-1.344 4.128-.874.939-2.176 1.408-3.904 1.408Zm13.773 0c-1.728 0-3.04-.48-3.936-1.44-.875-.96-1.312-2.336-1.312-4.128v-1.824h3.328v1.984c0 1.472.608 2.208 1.824 2.208.597 0 1.045-.181 1.344-.544.32-.384.48-1.045.48-1.984v-1.824c0-1.024-.182-1.75-.544-2.176-.363-.448-.95-.672-1.76-.672h-1.184v-3.2h1.28c.704 0 1.226-.181 1.568-.544.362-.363.544-.97.544-1.824V12.72c0-.768-.16-1.333-.48-1.696-.32-.363-.747-.544-1.28-.544-1.131 0-1.696.693-1.696 2.08v1.472h-3.328v-1.184c0-1.792.437-3.168 1.312-4.128.896-.96 2.176-1.44 3.84-1.44 1.685 0 2.965.48 3.84 1.44.874.939 1.312 2.304 1.312 4.096v.8c0 1.216-.203 2.197-.608 2.944-.406.725-1.035 1.248-1.888 1.568v.064c.917.341 1.578.896 1.984 1.664.405.768.608 1.75.608 2.944v1.984c0 1.792-.448 3.168-1.344 4.128-.875.939-2.176 1.408-3.904 1.408Zm11.98-10.272c-1.109 0-1.952-.31-2.528-.928-.576-.619-.864-1.504-.864-2.656v-5.6c0-1.152.288-2.037.864-2.656.576-.619 1.419-.928 2.528-.928 1.11 0 1.952.31 2.528.928.576.619.864 1.504.864 2.656v5.6c0 1.152-.288 2.037-.864 2.656-.576.619-1.418.928-2.528.928ZM282.796 7.6h2.24L276.364 30h-2.24l8.672-22.4Zm-8.128 10.432c.768 0 1.152-.47 1.152-1.408v-5.92c0-.939-.384-1.408-1.152-1.408-.768 0-1.152.47-1.152 1.408v5.92c0 .939.384 1.408 1.152 1.408Zm9.824 12.288c-1.109 0-1.952-.31-2.528-.928-.576-.619-.864-1.504-.864-2.656v-5.6c0-1.152.288-2.037.864-2.656.576-.619 1.419-.928 2.528-.928 1.11 0 1.952.31 2.528.928.576.619.864 1.504.864 2.656v5.6c0 1.152-.288 2.037-.864 2.656-.576.619-1.418.928-2.528.928Zm0-2.016c.768 0 1.152-.47 1.152-1.408v-5.92c0-.939-.384-1.408-1.152-1.408-.768 0-1.152.47-1.152 1.408v5.92c0 .939.384 1.408 1.152 1.408ZM243.108 45.8h1.76v9.6h2.896V57h-4.656V45.8Zm5.98 0h1.76V57h-1.76V45.8Zm8.743 12.24c-.8 0-1.291-.357-1.472-1.072-.331.128-.72.192-1.168.192-.864 0-1.526-.245-1.984-.736-.459-.49-.688-1.184-.688-2.08v-5.888c0-.896.229-1.59.688-2.08.458-.49 1.12-.736 1.984-.736.864 0 1.525.245 1.984.736.458.49.688 1.184.688 2.08v5.888c0 .747-.166 1.36-.496 1.84a.447.447 0 0 0 .24.208c.096.032.234.048.416.048h.272v1.6h-.464Zm-2.64-2.48c.608 0 .912-.368.912-1.104v-6.112c0-.736-.304-1.104-.912-1.104-.608 0-.912.368-.912 1.104v6.112c0 .736.304 1.104.912 1.104Zm6.902 1.6c-.853 0-1.504-.24-1.952-.72-.448-.49-.672-1.19-.672-2.096V45.8h1.76v8.672c0 .384.075.661.224.832.16.17.384.256.672.256.288 0 .507-.085.656-.256.16-.17.24-.448.24-.832V45.8h1.696v8.544c0 .907-.224 1.605-.672 2.096-.448.48-1.099.72-1.952.72Zm4.357-11.36h2.688c.875 0 1.531.235 1.968.704.438.47.656 1.157.656 2.064v5.664c0 .907-.218 1.595-.656 2.064-.437.47-1.093.704-1.968.704h-2.688V45.8Zm2.656 9.6c.288 0 .507-.085.656-.256.16-.17.24-.448.24-.832v-5.824c0-.384-.08-.661-.24-.832-.149-.17-.368-.256-.656-.256h-.896v8h.896Zm4.324-9.6h1.76V57h-1.76V45.8Zm4.935 1.6h-1.84v-1.6h5.44v1.6h-1.84V57h-1.76v-9.6Zm6.61 4.832-2.128-6.432h1.872l1.2 4.112h.032l1.2-4.112h1.712l-2.128 6.432V57h-1.76v-4.768Z"/></svg>